/* XPM */
static char *_6f3d400e19c4186e8e305ac17d10311PnAoOEr9uK4q3a7Q[] = {
/* columns rows colors chars-per-pixel */
"32 32 150 2 ",
"   c None",
".  c #AB6D1A",
"X  c #9B6A23",
"o  c #9F6E2A",
"O  c #A16D23",
"+  c #AA7326",
"@  c #A3742E",
"#  c #A97529",
"$  c #AB792C",
"%  c #B27D2D",
"&  c #B87E2B",
"*  c #A77933",
"=  c #AD7E33",
"-  c #B17F31",
";  c #B5832F",
":  c #BB822D",
">  c #AC8239",
",  c #B48334",
"<  c #BB8532",
"1  c #BD8A36",
"2  c #B38438",
"3  c #B88738",
"4  c #B58A3C",
"5  c #BC8D3B",
"6  c #BE903F",
"7  c #C08C37",
"8  c #C18E39",
"9  c #C4923C",
"0  c #C9953D",
"q  c #CA9A3F",
"w  c #B78C41",
"e  c #BB8E40",
"r  c #BF9242",
"t  c #BF974A",
"y  c #C49642",
"u  c #C99740",
"i  c #C59945",
"p  c #CB9B44",
"a  c #C09748",
"s  c #C59C4C",
"d  c #CA9E4A",
"f  c #D09E43",
"g  c #CEA146",
"h  c #CDA24C",
"j  c #D0A345",
"k  c #D4A846",
"l  c #D2A54B",
"z  c #D4AA4C",
"x  c #D9AE4C",
"c  c #D9B04F",
"v  c #C6A152",
"b  c #CBA452",
"n  c #D1A750",
"m  c #D4AB54",
"M  c #D9AE53",
"N  c #D5AF59",
"B  c #D7B053",
"V  c #DBB354",
"C  c #D6B15C",
"Z  c #DBB45B",
"A  c #DEB95D",
"S  c #E3BA54",
"D  c #E2BD5E",
"F  c #D5B361",
"G  c #DBB762",
"H  c #DDBA63",
"J  c #DDBC69",
"K  c #E1BE63",
"L  c #E0BF6A",
"P  c #DFC16E",
"I  c #DEC675",
"U  c #DECC7F",
"Y  c #E4C265",
"T  c #E8C464",
"R  c #E5C46B",
"E  c #EAC669",
"W  c #EAC96C",
"Q  c #F1CD6F",
"!  c #E4C671",
"~  c #E6C975",
"^  c #EBCD73",
"/  c #E6CD7B",
"(  c #EBCE79",
")  c #EED176",
"_  c #EFD47B",
"`  c #EAD07C",
"'  c #E8D07E",
"]  c #EDD27C",
"[  c #EED47F",
"{  c #EDD27A",
"}  c #F3D372",
"|  c #F0D57F",
" . c #F0D67E",
".. c #F1D57A",
"X. c #F2D87F",
"o. c #F4D97E",
"O. c #F6DB7E",
"+. c #F4D97E",
"@. c #ECD481",
"#. c #EFD882",
"$. c #EDDB8A",
"%. c #F0D880",
"&. c #F3DA80",
"*. c #F1D982",
"=. c #F2D982",
"-. c #F3DB83",
";. c #F4DA82",
":. c #F5DC83",
">. c #F7DE82",
",. c #F3DB84",
"<. c #F0DA87",
"1. c #F4DB85",
"2. c #F4DD85",
"3. c #F4DE85",
"4. c #F7DE84",
"5. c #F5DE86",
"6. c #F4DB81",
"7. c #F2DC88",
"8. c #F4DF8A",
"9. c #F5DF89",
"0. c #F8E085",
"q. c #F9E187",
"w. c #FBE183",
"e. c #F5E18A",
"r. c #F7E28B",
"t. c #F7E38D",
"y. c #F8E38C",
"u. c #FAE48D",
"i. c #FBE68E",
"p. c #FBE78E",
"a. c #FBE88F",
"s. c #FFEC88",
"d. c #F7E590",
"f. c #FFED93",
"g. c #F8E895",
"h. c #FBEB95",
"j. c #FFED95",
"k. c #FFEE95",
"l. c #FDEC96",
"z. c #FDED96",
"x. c #FDED97",
"c. c #FAEA93",
"v. c #FFF096",
"b. c #FDF099",
"n. c #FFF39B",
"m. c #FFF59E",
"M. c #FBF3A1",
"N. c #FFFFAC",
"B. c #FFFFAA",
"V. c #FFFFBF",
/* pixels */
"                            L N n L                             ",
"                      N y 8 y p p b 7 < d ~                     ",
"                ] C b u l h 0 7 7 7 9 9 < & s L                 ",
"              G i N m u 5 5 a a a 5 3 < 8 d y 7 m               ",
"            G i J m y v C ! ] #.( ! L F a 3 7 d b p             ",
"          ( [ ( m v J -.e.-.#.] ! ! ^ ^ ( F y 8 d p 8           ",
"        x.h.y.N N [ :.X.,.,.6.] ! ! ^ R K L L i y N n i         ",
"      x./ b.J H 0.X.{ [ 2.2.2.6.^ { ( ! K Z N K n a L d n       ",
"    b.J P P A O._ ^  .v.v.c.u.x.L 8 G ~ K Z K H N d N R b (     ",
"    ! H ^ B W W P ..+.D Z 0.v.u.d.a 8 G ~ R K H Z N d L J J     ",
"    s R B A W P ^ O.B # . 8 { a.1.! d.@.@.@.B H L Z l G @.J 7.  ",
"  R h B k D D Y W z 6 6 5 6 ~ 0.#.R h.~ a b m Z Z M N n -.<.8.  ",
"  k V k x A V D k ; 9 W n.I g.t.{ R d 5 5 ; h m m m m u R B.m.  ",
"  c c g V V V j n ' B.$.U d.b m ! K < 3 0 , l h h l l p m c.8.  ",
"Z Z B k A V V j c.V.m.4 ; r 1 < Z Z 2 i 3 2 k p u g g l l ^ C 8.",
"x m B c c V V z / H , 3 S q 5 q i p p y @ p u q u h p 0 0 ^ ~  .",
"k g A Y V D Y z : : , h V S p 9 u f M o < f 9 9 q z p 0 q Y P ( ",
"k q A ^ D D Y V 1 q u z V V A y z M @ , f 9 8 9 y j 0 h k A J Z ",
"  V A ..P T Y D u 0 u m D D W A d = e M f i f s 2 q p 0 k c c   ",
"  W Y X.W Y R Y h 0 g l K T ^ ..t d K m m n K w 9 m m p V c S   ",
"  Y } 6.( D Y W H u B m Z W ^ :.-.! L K G D e - M m b Z R x k   ",
"  s 0._ ( D R Y W b h W K E ..o.O.^ R H M - * N m m h { D x 3   ",
"    R ) ^ K A A Y E v b ^ O.} R A M f < O = J N H n R 6.l V     ",
"    t R R R A V Z W W h v b y 3 % + # = v W K m C N e.W W i     ",
"      m M N H K M Z K Q A b d s s s n L ) G m m m ( W K E       ",
"        M l m N L S V K K K E ^ W ^ ^ L N m l N ! ..T ..>       ",
"        - M l l d K K Z D R K R L ! L M l Z Z L W } s.b         ",
"          $ l G n i M K R E R Y L K D G Z N G K N Q b           ",
"            X y M i 8 u n N N Z D N N m m Z R K M >             ",
"                % f m 8 < 8 d p u u u u d K Z r                 ",
"                    - 7 9 q Z M f z f f u ,                     ",
"                          + # - - - *                           "
};
