/* XPM */
static char *_284184e26f24a4aeeee0447061489a8uuiiR4NBKIKcY18T[] = {
/* columns rows colors chars-per-pixel */
"16 16 189 2 ",
"   c None",
".  c #A27128",
"X  c #AC792B",
"o  c #B47926",
"O  c #B57D2A",
"+  c #B87F2B",
"@  c #B17F30",
"#  c #B68434",
"$  c #B58537",
"%  c #BA8633",
"&  c #BA8635",
"*  c #BC8935",
"=  c #BC8936",
"-  c #BD8936",
";  c #B88738",
":  c #B28A3E",
">  c #BA8A3A",
",  c #BD8B38",
"<  c #BC8B3B",
"1  c #C28F37",
"2  c #C18E3B",
"3  c #C59339",
"4  c #C6953B",
"5  c #C1913E",
"6  c #C1923F",
"7  c #C5923E",
"8  c #C4923F",
"9  c #C1953D",
"0  c #C2963D",
"q  c #C7963D",
"w  c #C8953C",
"e  c #C29340",
"r  c #C39440",
"t  c #C19542",
"y  c #C19443",
"u  c #C49745",
"i  c #C79944",
"p  c #C59846",
"a  c #C69946",
"s  c #C79A47",
"d  c #C89941",
"f  c #CB9A40",
"g  c #C99A42",
"h  c #CF9C43",
"j  c #CA9B46",
"k  c #C89D47",
"l  c #CD9E45",
"z  c #CE9F46",
"x  c #C29748",
"c  c #C49C4D",
"v  c #CB9D48",
"b  c #CB9D49",
"n  c #CFA140",
"m  c #CFA048",
"M  c #CEA148",
"N  c #CDA14A",
"B  c #CFA44A",
"V  c #D1A34B",
"C  c #D0A44B",
"Z  c #D3A64A",
"A  c #D5A54B",
"S  c #D3A64D",
"D  c #D1A54E",
"F  c #D7A94E",
"G  c #C8A150",
"H  c #CEA552",
"J  c #CFA753",
"K  c #D0A752",
"L  c #D3A851",
"P  c #D3AA50",
"I  c #D3AA51",
"U  c #D1A953",
"Y  c #D4A850",
"T  c #D7AD51",
"R  c #D6AE50",
"E  c #D7AF52",
"W  c #D0A955",
"Q  c #D1A955",
"!  c #D1AA55",
"~  c #D2AA55",
"^  c #D1AB57",
"/  c #D5AB55",
"(  c #D5AD54",
")  c #D5AD57",
"_  c #D6AD56",
"`  c #DBAE54",
"'  c #D8B051",
"]  c #D9B151",
"[  c #DAB251",
"{  c #D9B157",
"}  c #DCB255",
"|  c #DAB456",
" . c #D7B159",
".. c #D5B15F",
"X. c #D7B35F",
"o. c #D9B058",
"O. c #DAB259",
"+. c #D8B15A",
"@. c #D9B15A",
"#. c #D8B25B",
"$. c #DCB259",
"%. c #DBB659",
"&. c #DCB65A",
"*. c #DEB65B",
"=. c #D8B35D",
"-. c #DBB45C",
";. c #DCB75D",
":. c #DFBA5D",
">. c #E3BA56",
",. c #E1B75B",
"<. c #E2BD58",
"1. c #E2B95E",
"2. c #E0BB5E",
"3. c #D9B561",
"4. c #DBB661",
"5. c #DAB762",
"6. c #DAB763",
"7. c #DAB861",
"8. c #DBB861",
"9. c #D8B862",
"0. c #DBB863",
"q. c #DFB961",
"w. c #DCB863",
"e. c #DEBA62",
"r. c #DBB964",
"t. c #DEBE6A",
"y. c #DFBE6C",
"u. c #E0BB62",
"i. c #E2BC61",
"p. c #E2BE61",
"a. c #E2BE65",
"s. c #E0BF66",
"d. c #DFC575",
"f. c #E2C063",
"g. c #E3C163",
"h. c #E5C264",
"j. c #E5C265",
"k. c #E6C565",
"l. c #E6C567",
"z. c #EBC460",
"x. c #E5C368",
"c. c #E4C36B",
"v. c #E5C46A",
"b. c #E7C76B",
"n. c #E0C16C",
"m. c #E8C769",
"M. c #E8C56B",
"N. c #E6C86D",
"B. c #EACC6F",
"V. c #E0C473",
"C. c #E5C772",
"Z. c #E6C870",
"A. c #E7C871",
"S. c #E7CA74",
"D. c #E7CA75",
"F. c #E8C971",
"G. c #E9CB70",
"H. c #ECCC70",
"J. c #EDCC70",
"K. c #EDCE73",
"L. c #EECE72",
"P. c #E9CC75",
"I. c #EACC74",
"U. c #EBCC74",
"Y. c #EACF7C",
"T. c #ECD073",
"R. c #EBD07B",
"E. c #E9D17E",
"W. c #EFD47C",
"Q. c #F4D576",
"!. c #F7D777",
"~. c #F1D378",
"^. c #F3D87C",
"/. c #F6DA7D",
"(. c #FEE07E",
"). c #EED681",
"_. c #EED682",
"`. c #F7DE83",
"'. c #F4DB84",
"]. c #F2DC86",
"[. c #F4DC84",
"{. c #F3DD89",
"}. c #FAE185",
"|. c #FAE78E",
" X c #FCE88E",
".X c #FFED8C",
"XX c #FEEF96",
"oX c #FFF197",
"OX c #FEF49F",
/* pixels */
"            3.j j =.            ",
"        3.2 % s s O o J         ",
"      w.s X.S.R.Z.t.H & r       ",
"    {.S.Z.|.oX[.Z.P.c.~ g b     ",
"  Y.7.m.}.Z.P.oXw.3.P.a.) ~ y.  ",
"  B | m.%.= p |.[.V.X.=.@.@._.  ",
"g.n ] ] f.).d.n.v.r # N S l W.OX",
"T T ] T _.9.< , V < ; f l q ( ].",
"Z =.l.%.+ 3 <.N 7 $ 2 4 f q I N.",
"j Q.T.g.f m h.B.G K } r r B >.9 ",
"  .XB.l. .S B.}.^.i.y x Y w.z.  ",
"  7.T.:.i.3.3.~ e > c @.3./.I   ",
"    ,.*.1.j.X.~ ^ r.u.( ~.(.    ",
"    . } $.} j.H.K.u.( M.!.:     ",
"        5 l A o.Y F 1.~         ",
"            X , = @             "
};
