/* XPM */
static char *_faeb41a01af41bd8c84be890893936boWFWx1j6oshC9Mxq[] = {
/* columns rows colors chars-per-pixel */
"64 64 184 2 ",
"   c None",
".  c #7D4B15",
"X  c #824F16",
"o  c #835017",
"O  c #8A5816",
"+  c #855419",
"@  c #8D5A1D",
"#  c #925F1F",
"$  c #936017",
"%  c #A46C1F",
"&  c #AD711F",
"*  c #B4761F",
"=  c #8D5E23",
"-  c #946424",
";  c #996723",
":  c #9C6A25",
">  c #9C6D2B",
",  c #9E712D",
"<  c #9D7131",
"1  c #A16F27",
"2  c #A16F28",
"3  c #A67327",
"4  c #AC7627",
"5  c #A4732B",
"6  c #AB762A",
"7  c #A6782C",
"8  c #AC7A2C",
"9  c #B37621",
"0  c #B57924",
"q  c #B27D2C",
"w  c #A57733",
"e  c #A57935",
"r  c #AB7D33",
"t  c #AA7E38",
"y  c #B17F31",
"u  c #B7802D",
"i  c #BB832D",
"p  c #AD8135",
"a  c #AE833B",
"s  c #B38334",
"d  c #BB8632",
"f  c #BD8A35",
"g  c #B2853A",
"h  c #B58A3C",
"j  c #BC8D3B",
"k  c #BF913E",
"l  c #C28C35",
"z  c #C28E39",
"x  c #C39133",
"c  c #C5933C",
"v  c #C9953D",
"b  c #CA9A3E",
"n  c #D09A3E",
"m  c #CFA23F",
"M  c #B58C41",
"N  c #B98F42",
"B  c #BC9244",
"V  c #B79349",
"C  c #BD9549",
"Z  c #BE984C",
"A  c #C49542",
"S  c #C89740",
"D  c #C59A45",
"F  c #CB9B44",
"G  c #C49B4C",
"H  c #CA9E4A",
"J  c #D19F45",
"K  c #C39E51",
"L  c #CDA145",
"P  c #CDA24B",
"I  c #D2A245",
"U  c #D5A846",
"Y  c #D1A54C",
"T  c #D5AB4C",
"R  c #D9AD4D",
"E  c #DAB04E",
"W  c #C6A254",
"Q  c #CDA552",
"!  c #CFA854",
"~  c #C7A358",
"^  c #CCA95A",
"/  c #D1A651",
"(  c #D4AB54",
")  c #D9AE53",
"_  c #D5AE59",
"`  c #D6B055",
"'  c #DBB354",
"]  c #DEB957",
"[  c #D6B15C",
"{  c #DBB45B",
"}  c #DEB95C",
"|  c #E1AE4B",
" . c #E2B453",
".. c #E2B954",
"X. c #EABF56",
"o. c #E1BB5D",
"O. c #CEAF60",
"+. c #D5B463",
"@. c #DAB661",
"#. c #DDBA64",
"$. c #D6BA6B",
"%. c #DCBD6A",
"&. c #D6BF71",
"*. c #E1BD63",
"=. c #E1BF68",
"-. c #E8C057",
";. c #E4C05E",
":. c #E8C15A",
">. c #DFC069",
",. c #DBC576",
"<. c #E4C265",
"1. c #EAC364",
"2. c #EDC867",
"3. c #E2C26C",
"4. c #E1C26D",
"5. c #E5C46B",
"6. c #E9C66A",
"7. c #E7C86D",
"8. c #EAC96D",
"9. c #F4D16D",
"0. c #E5C772",
"q. c #E4C772",
"w. c #E7C872",
"e. c #E6C872",
"r. c #E6C975",
"t. c #E5C973",
"y. c #E8CB75",
"u. c #E9CB75",
"i. c #EACD77",
"p. c #EDCF77",
"a. c #EBCC73",
"s. c #E1C778",
"d. c #E4CB79",
"f. c #E6CD7A",
"g. c #EBCF78",
"h. c #EACD78",
"j. c #EACE79",
"k. c #EED175",
"l. c #EBD07A",
"z. c #ECD17B",
"x. c #EED17A",
"c. c #EDD37E",
"v. c #EFD57F",
"b. c #EED37B",
"n. c #F2D374",
"m. c #F8D977",
"M. c #F2D67D",
"N. c #F1D67C",
"B. c #F3D87F",
"V. c #F4DA7D",
"C. c #FADD7C",
"Z. c #E6D487",
"A. c #ECD582",
"S. c #EED987",
"D. c #EFDD8A",
"F. c #F0D680",
"G. c #F0D780",
"H. c #F3DB83",
"J. c #F1D882",
"K. c #F6DE85",
"L. c #F4DC84",
"P. c #F9DF84",
"I. c #F3DE88",
"U. c #F4DF8A",
"Y. c #F7E087",
"T. c #FAE185",
"R. c #FFE985",
"E. c #F6E18B",
"W. c #FAE38A",
"Q. c #FCE78E",
"!. c #F9E48C",
"~. c #FFEC8E",
"^. c #F7E693",
"/. c #FAE790",
"(. c #F7EA97",
"). c #FDEB94",
"_. c #FEEF98",
"`. c #FFF096",
"'. c #FFF29C",
"]. c #FFFC9F",
"[. c #FFF6A1",
"{. c #FFFAA4",
"}. c #FFFFAB",
"|. c #FFFFB3",
/* pixels */
"                                                                                                                                ",
"                                                      3.@._ [ ( Y / / _ #.                                                      ",
"                                              *.H z d l z A / / z c ( / A 9 d A _                                               ",
"                                        =.H z l z A S D H F D A H H %.[ P l d i 0 0 A @.                                        ",
"                                    %.H @.+.J H H H F / H A S D A l l s f A c z z l A z l P                                     ",
"                                =.J { 0.@.[ _ H / ( / / H H F H S D F A D F F S A F S f A _ A P                                 ",
"                            I.( _ ^ H _ A G @._ ( H S l q 4 4 9 4 4 9 q d z S F S H H H A A _ G i 3.                            ",
"                          y._ Q K @.A P %.! ) S 0 6 s N C K ~ ~ K K C M g y 6 4 l F H H H y / #.A A (                           ",
"                        j.P A _ _ _ y.#. .z 6 g K $.d.c.L.Y.W.Q.P.F.M.p.s.=.K B y 6 q J H P S q +.Z.! F                         ",
"                      w.0.3.H H 0.t.*.A 6 V $.j.K.V.p.a.x.x.v.G.h.r.r.5.F.L.J.F.%.K g 4 d J P A [ P _ S z                       ",
"                    z.j.p.A.r.d.x.' p B &.H.M.8.w.y.A.J.M.z.y.y.r.=.=.*.*.=.r.r.p.M.5.~ g 6 S ) H N A H S c                     ",
"                  J.A.J.G.G.U.M.L s O.J.N.5.7.H.W.K.J.M.A.J.A.y.5.0.=.0.=.{ *.[ *.0.5.w.=.G 8 d / / / / / D D                   ",
"                Q.E.E.E.E.!.N.F M t.T.6.5.J.W.E.J.M.A.K.Y.Y.I.k.u.r.h.K.j.J.r.=.@.{ { *.@.=._ t y / { _ / ( H /                 ",
"              '.^.^._./._.H.H Z B.V.4.x.E.Y.M.b.I.B.I.J.J.b.v.l.h.5.5.=.3.c.F.j.=.*.*._ { _ { *.N f ( @.[ [ { F @.              ",
"            [.E.S.{.).[.Q./ K H.N.7.B.Y.L.a.7.b.I.K.L.J.L.L.A.v.c.h.r.7.=.*.*.=.=.@.@.*.{ { _ _ *.B l ) =.[ A A A c.            ",
"            '.E._ G S.{.{ G V.M.p.L.E.x.5.a.J.W.E.Y.K.Y.E.W.E.Y.F.p.P.U.F.u.=.*.=.=.@.{ @._ { { _ { N A *.@.[ Q @.[             ",
"          /.E.j.+.,.~.>.D k.V.N.V.I.8.>.b.Q.!.Y.K.K.E.E.E.W.E.W.c.A v @.c.M.p.u.=.@.@.*.{ *.{ [ _ _ { A H 6.5._ G F =.          ",
"          /.+.A ^ }.8.k >.V.k.k.V.7.>.b.Y.V.V.Y.Q.W.E.W.W.Q.Q.E.W.+.1 9 z =.r.=.5.*.*.{ { h.0.) { _ ) / M o.h._ +.s.$.          ",
"        E.( d.I.v.k.D ` m.k.<.8.>.>.k.V.b.N.!.N.x.Y._.Q.E.W.Q.W.K.!.^ y l A %.^ r.=.=.=.{ =.*.@.{ { _ { G G w.J.=.G Q =.        ",
"        7.W P y.~.U D 7.7.>.<.7.7.7.m.k.N.k.T j f c #./.Q.E.E.E.J.P.j.K Y { h.K A._.[ =.*.{ { *._ ) { _ { A ) K._ _ r.=.        ",
"      V.( @.>.4.>.k ' a.>.;.;.7.<.k.k.8.>.p & i l 0 9 / E.W.E.Y.G.v.L.+.=.'.{.~ O.|.s._ =.#.} { 0.=.{ { { P H M.K.A.(.c.A.      ",
"      [ B A { C.m L <.;.7.7.;.>.k.l.;.k.] h a p q l l 0 _ Y.W.K.M.c.B.@.Z.}.|.^ G }.L.K } } @.[ u.*._ { _ o.G =._.+._ s.s.      ",
"    V.E ! _ >.o.k U >.] >.;.>.] >.<.6.<.` ( ( ^ V r H Y P 3.I.K.v.x.b.} A.|.{.K B *.H A [ { { { / / ) { _ ) H / Q.U.h.U.J.!.    ",
"    >.E ;.] >.U D ] ;.;.] ] ;.7.<...R d u d k U <.W g l.).A.w.K.b.y.k.@.&.E.%.N A i q M ( [ ) ) { ) / ) ( ( ( F 6.'.'./.^./.    ",
"    R T E ' ' L m ;.] ] ] ;.` } <.U u f c F P _ 3._.^ Z }.}.f.f.B.a.a.>.Q x u M H l z g / ) / / ) ) Y ( ( / ) A ( ).[._._.).    ",
"    m R T T E m L } { { ] ] L T T j D P [ 4.M.'.}.[.{.W ^ |./.q.x.a.y.>.f i j M J n g r ) / / Y Y ( / / T / ( F L V.[.'._.'.    ",
"  5.m U U T U L ` ' E ' ] E U ..b W >.b.^._.}.E.Z.}.{.{.K +.#.( y.a.6.{ z n h g H J w y ) Y Y Y L Y / L Y Y Y L c 8.'.'.{.]._.  ",
"  } ;.<.>.U T L E T ] ' ] E ] m / E._.].[.{.}., O ,.Y.5.( s 9 c >.7.<.! z J e N J A - F Y J F F F Y / L Y Y F F c ' _.M.@.j._.  ",
"  ] Y ( >.E L m 8.>.' ] ` E ] f d.|.[.'.'.|.~ $ U p g i x D h l Q 4.*.H S z e H U 5 5 R F F F F F L L L Y b #.%.f U ~.w.s P /.  ",
"  ' _ A b E U U ;.] ' ' E ` ] k A.}.'._.!.w.; f :.' s s c v P v A @.{ A I t h | M @ S H F F F F F F F Y L F ) ) f L V.E.t.t.E.  ",
"  R 7.A.o.R ' R U E ] ' ' ' ' D I.'.y.{ F 4 3 E T E ' h f v L F b ! H v F N I Y = r U F F b F v S S _ Y A Y c x c m k.B.[ ( v.  ",
"  R l G ` ' ;.` ` ' ' ] ' ' ] L ^ Y f q l 8 h  .R U ' ' g k b b F A z J H H  ., $ F F c b c v v c F =.Y b L F c c F 8.A.c.w.y.  ",
"  ' [ U U } a.] ` ] ] o.] ] ;.L 0 u l c b h c E E U E ] ( g F F F F S J H  .M X c b v c b c c b c c f L b L v x A U 6.<.! f.N.  ",
"  T Y / U ] b.' ] o.o.o.] ] >.L s v c c b k L ' E R ' ' ;.D f L F F Y H  .A . s b c c v v c v c j U >.b F b Y P c Y <.<.! ! 6.  ",
"  Y I P U } L.] l.7.o.o.>.] ;.E z S v S b A W ' ' ` ' ' ] o.k c Y Y Y  .H . 4 I v c c v v c x c k A T L L c { =.x R E k.D.c.}   ",
"  L ) Q Y } E.<.o.>.<.<.>.o.5.] z c v F F F P ' ] ' ] ] o.8._ B R Y o.Y o y R F F F v v v v k L s c b D F F A v b ` ' Y L } [   ",
"  A } P Y ' Q.k.] <.<.<.<.;.5.;.A z F F F b P ) o.} } } o.6.8.G Y *.F + g  .Y H H J H F F z _ Q $ U F F F F F v L ' E U L E C   ",
"  B 2.} ] ' Q.L.] 5.<.<.5.5.] <.! j J F F b Y _ ] ;.o.<.<.8.m.[ Y H + N *.[ ( Y / J H Y F F n.w r T H F I F F A ! ] U R ' -.g   ",
"    9.<.;.' Y.'.] 6.6.5.<.7.' ] @.j F F L Y L _ } <.<.1.8.7.N.x.A # G 8.} [ ) ( ( / ( J S m.Q @ Y Y I L L Y Y S o.] U R E ..    ",
"    6.6.<.] 8.].<.<.<.7.6.y.} #.7.A z R Y Y Y ( @.<.6.6.7.k.n.C.#.+.a.=.@.} { _ ) ( ( / =.=.@ j ) Y F #.r.H F L k.] U R E E     ",
"    [ m.6.<.;.).M.' 7.6.<.5.1.i.n./ j ( T ( ) ( [ *.8.a.u.n.N.N.V.N.7.*.=.@.@.[ [ [ ) { =.1 ; ) Y / P ( ) / F #.B.T E R ..L     ",
"    B R.a.b.8.x.W.{ <.<.<.<.6.} 6.a.A B o.) { {  .o.=.8.p.N.L.V.M.x.y.5.=.*.*.*.=.@.[  .y + / _ / / / P P / P K.8.L / E -.u     ",
"      V.C.W.L.8.U.7.' <.>.<.<.<.7.N.] g / 6.o.o.*.*.*.5.a.p.N.L.V.M.x.y.r.8.=.*.*.J U y X G { _ ) ( ( ( { L #.'.' m A A R       ",
"      ! 4./ #.n.p.A.' *.] <.} *.} <.k.R r _ 9.=.=.6.7.9.8.p.a.8.8.3.5.*.=.{ ( F c S 6 + G *.) ) Q / _ _ ) P (.C.U E ( ` j       ",
"        6.^ E.E.*.j.7.( <.o.<.{ } { 6.k.( r W N.m.p.p.p.p.6.=.*.{ ) T H J z z v z ; = G =.o._ / 4.y.( { L y.}.) I ( ` <.        ",
"        [ C.$.%.1.=.p.o.' <.' } o.x.' <.n.) r j *.C.m.6.*.o.{ ( / H S c v v l 2 # , _ a.=.{ / _ 5.5.{ / [ }.M.T o.Y F L         ",
"          1.H 5.y.*.#.y.) o.<.' } } } *.<.n.6.B w M G ( T / Y J v l i q 4 2 > < G =.w.=._ / _ *._ ( ( / /.[.m *.I.t.:.7         ",
"          H o.P @.7.{ @.a.R o.*.( ( *.M.o.o.7.k.*.G t t w 8 6 2 1 1 : w w t K *.p.F.*.) _ ) { _ [ ( P c.'.o.<.y.F o.(           ",
"            ) P / _ ) ) @.8./ *.*.R Y ) 7.<.o.*.5.6.6.*._ ^ ~ K K ^ _ *.=.*.a.M.@.*.{ { _ _ ) _ ( Y 0.).6.' t.!.5.'             ",
"            p o.H A H o./ [ 7.) o.5.) Y ) <.7.<.*.*.*.*.6.6.a.9.p.a.=.*.*.{ *.=.=.=.@.) ( ) _ T Y 0.U.8.o.*.' P 9.B             ",
"              A o.H Y / ) H _ 8.) { =.*.T R { <.*.*.*.<.=.*.6.=.=.*.*.=.*.p.0.=.=.( / _ ) _ H ( y.j.0.6.1.6.<.1.P               ",
"                H ) Y Y Y / S / 8.o.) *.=.{ ) ) o.*.{ } *.*.*.*.*.*.*.n.=.=.=.) / ( _ ) / J @.r.r.6.a.a.8.6.C.n.                ",
"                  Y R F H Y H z A =.7.o.{ *.*.o.{ { p.p.o.*.*.*.6.=.=.6.=.o.{ _ ) ) ( H _ =.r.*.5.C.n.p.a.P.C.                  ",
"                    J I v H r.*.l l / =.5.o.) o.*.o.<.5.*.5.6.u.H.u.p.=.*.{ _ ( / H _ 7.8.=._ *.6.@.8.8.C.C.                    ",
"                      J Y H @.=.H ( d l ( 3.w.*.{ { ) { } @.o.o.{ { ) ) ( Y / _ *.0.7.*.Y H 7.p.H j Q C.9.                      ",
"                        z H f A A.@.c J q l / { 7.u.p.6.*.*.{ { ) ) ) *.*.0.u.=.@.[ F c *.6.( +._ H *.*.                        ",
"                          y v A A l / _ D S d d c Y [ @.=.8.u.u.p.p.0.=.*.+._ H S v [ *.@.U.*.j / 6.P                           ",
"                            : l c A D z / / A S z l q d d S F D H F S z l l c F Y / 3.I.@.C @.{ T a                             ",
"                                8 c S S A z l z v A A c S l d l z z A H H H H J H Y H / _ J ) A                                 ",
"                                    4 c / S l z z z l H f._ @.3.z { S S H S F S F F F F H N                                     ",
"                                        1 l v v c c l c P { ( { z F S F S S S J Y I c r                                         ",
"                                            ; 6 q l l v c S l l F S J ) J S A l 8 >                                             ",
"                                                    ; 1 3 6 q y y q 8 6 2 :                                                     ",
"                                                                                                                                "
};
